<svg width="70" height="70" viewBox="0 0 70 70" fill="none" xmlns="http://www.w3.org/2000/svg">
<path d="M22.925 53.5C22.525 53.5 22.1917 53.3583 21.925 53.075L16.925 48.075C16.6417 47.8083 16.5 47.475 16.5 47.075V20.8C16.5 20.3833 16.7083 20.175 17.125 20.175H24.2C24.6167 20.175 24.825 20.3833 24.825 20.8V46.8H30.425V20.8C30.425 20.3833 30.6333 20.175 31.05 20.175H38.125C38.5417 20.175 38.75 20.3833 38.75 20.8V46.8H44.325V20.8C44.325 20.3833 44.5333 20.175 44.95 20.175H52.05C52.4667 20.175 52.675 20.3833 52.675 20.8V47.075C52.675 47.475 52.5333 47.8083 52.25 48.075L47.25 53.075C46.9667 53.3583 46.6333 53.5 46.25 53.5H40.375C39.9917 53.5 39.6583 53.3583 39.375 53.075L35.175 48.875H34L29.8 53.075C29.5167 53.3583 29.1833 53.5 28.8 53.5H22.925Z" fill="#212121"/>
</svg>
